<svg width="666" height="234" viewBox="0 0 666 234" fill="none" xmlns="http://www.w3.org/2000/svg">
<path d="M222.822 10.913L106.126 127.609" stroke="white" stroke-width="21.22" stroke-linecap="round" stroke-linejoin="round"/>
<path d="M222.822 10.913L148.561 223.087L106.126 127.609L10.647 85.174L222.822 10.913Z" stroke="white" stroke-width="21.22" stroke-linecap="round" stroke-linejoin="round"/>
<path fill-rule="evenodd" clip-rule="evenodd" d="M148.658 221.556L216.299 24.89L106.255 127.967L148.658 221.556Z" fill="white"/>
<path d="M324.827 95.835C331.186 95.835 336.07 97.457 339.479 100.702C342.888 103.947 344.592 108.716 344.592 115.009V147.558H339.872V138.413C338.233 141.428 335.84 143.772 332.694 145.443C329.547 147.115 325.778 147.951 321.386 147.951C315.682 147.951 311.175 146.607 307.865 143.919C304.554 141.231 302.899 137.692 302.899 133.299C302.899 129.038 304.423 125.58 307.471 122.925C310.52 120.27 315.387 118.943 322.074 118.943H339.675V114.813C339.675 110.027 338.381 106.389 335.791 103.898C333.202 101.407 329.416 100.161 324.434 100.161C321.025 100.161 317.764 100.751 314.65 101.931C311.536 103.111 308.897 104.685 306.734 106.651L304.276 103.111C306.832 100.817 309.913 99.03 313.519 97.752C317.124 96.474 320.894 95.835 324.827 95.835ZM322.074 143.919C326.335 143.919 329.957 142.936 332.94 140.969C335.922 139.003 338.168 136.151 339.675 132.414V122.778H322.172C317.124 122.778 313.47 123.696 311.208 125.531C308.946 127.367 307.816 129.89 307.816 133.103C307.816 136.446 309.061 139.085 311.552 141.018C314.043 142.952 317.551 143.919 322.074 143.919Z" fill="white"/>
<path d="M395.037 74.595H390.12V147.558H395.037V74.595Z" fill="white"/>
<path d="M461.116 147.951C456.265 147.951 451.889 146.836 447.989 144.608C444.088 142.379 441.023 139.281 438.795 135.315C436.566 131.349 435.451 126.875 435.451 121.893C435.451 116.911 436.566 112.436 438.795 108.47C441.023 104.504 444.088 101.407 447.989 99.178C451.889 96.949 456.265 95.835 461.116 95.835C465.967 95.835 470.343 96.949 474.243 99.178C478.144 101.407 481.209 104.504 483.438 108.47C485.666 112.436 486.781 116.911 486.781 121.893C486.781 126.875 485.666 131.349 483.438 135.315C481.209 139.281 478.144 142.379 474.243 144.608C470.343 146.836 465.967 147.951 461.116 147.951ZM461.116 143.526C465.049 143.526 468.573 142.608 471.687 140.773C474.801 138.937 477.259 136.38 479.062 133.103C480.865 129.825 481.766 126.088 481.766 121.893C481.766 117.697 480.865 113.961 479.062 110.683C477.259 107.405 474.801 104.848 471.687 103.013C468.573 101.177 465.049 100.26 461.116 100.26C457.183 100.26 453.659 101.177 450.545 103.013C447.431 104.848 444.973 107.405 443.17 110.683C441.368 113.961 440.466 117.697 440.466 121.893C440.466 126.088 441.368 129.825 443.17 133.103C444.973 136.38 447.431 138.937 450.545 140.773C453.659 142.608 457.183 143.526 461.116 143.526Z" fill="white"/>
<path d="M573.51 96.228V142.051C573.51 150.573 571.445 156.866 567.315 160.931C563.185 164.995 556.958 167.027 548.632 167.027C543.912 167.027 539.454 166.306 535.259 164.864C531.063 163.422 527.687 161.422 525.131 158.866L527.786 155.129C530.342 157.489 533.423 159.325 537.029 160.636C540.634 161.947 544.469 162.602 548.534 162.602C555.351 162.602 560.399 160.98 563.677 157.735C566.955 154.49 568.594 149.459 568.594 142.641V133.988C566.496 137.724 563.579 140.609 559.842 142.641C556.105 144.673 551.91 145.689 547.255 145.689C542.47 145.689 538.127 144.624 534.226 142.493C530.326 140.363 527.261 137.397 525.032 133.594C522.803 129.792 521.689 125.498 521.689 120.713C521.689 115.927 522.803 111.633 525.032 107.831C527.261 104.029 530.326 101.079 534.226 98.981C538.127 96.884 542.47 95.835 547.255 95.835C551.975 95.835 556.236 96.884 560.039 98.981C563.841 101.079 566.758 104.029 568.79 107.831V96.228H573.51ZM547.649 141.264C551.648 141.264 555.253 140.396 558.465 138.658C561.677 136.921 564.185 134.496 565.988 131.382C567.79 128.268 568.692 124.712 568.692 120.713C568.692 116.714 567.79 113.174 565.988 110.093C564.185 107.012 561.677 104.603 558.465 102.865C555.253 101.128 551.648 100.26 547.649 100.26C543.65 100.26 540.061 101.128 536.881 102.865C533.702 104.603 531.211 107.012 529.408 110.093C527.605 113.174 526.704 116.714 526.704 120.713C526.704 124.712 527.605 128.268 529.408 131.382C531.211 134.496 533.702 136.921 536.881 138.658C540.061 140.396 543.65 141.264 547.649 141.264Z" fill="white"/>
<path d="M639.688 147.951C634.837 147.951 630.461 146.836 626.561 144.608C622.66 142.379 619.595 139.281 617.366 135.315C615.138 131.349 614.023 126.875 614.023 121.893C614.023 116.911 615.138 112.436 617.366 108.47C619.595 104.504 622.66 101.407 626.561 99.178C630.461 96.949 634.837 95.835 639.688 95.835C644.539 95.835 648.915 96.949 652.815 99.178C656.716 101.407 659.781 104.504 662.009 108.47C664.238 112.436 665.353 116.911 665.353 121.893C665.353 126.875 664.238 131.349 662.009 135.315C659.781 139.281 656.716 142.379 652.815 144.608C648.915 146.836 644.539 147.951 639.688 147.951ZM639.688 143.526C643.621 143.526 647.145 142.608 650.259 140.773C653.373 138.937 655.831 136.38 657.634 133.103C659.436 129.825 660.338 126.088 660.338 121.893C660.338 117.697 659.436 113.961 657.634 110.683C655.831 107.405 653.373 104.848 650.259 103.013C647.145 101.177 643.621 100.26 639.688 100.26C635.755 100.26 632.231 101.177 629.117 103.013C626.003 104.848 623.545 107.405 621.742 110.683C619.94 113.961 619.038 117.697 619.038 121.893C619.038 126.088 619.94 129.825 621.742 133.103C623.545 136.38 626.003 138.937 629.117 140.773C632.231 142.608 635.755 143.526 639.688 143.526Z" fill="white"/>
</svg>
